<?xml version="1.0" standalone="no"?>
<!DOCTYPE svg PUBLIC "-//W3C//DTD SVG 20010904//EN"
 "http://www.w3.org/TR/2001/REC-SVG-20010904/DTD/svg10.dtd">
<svg version="1.0" xmlns="http://www.w3.org/2000/svg"
 width="512.000000pt" height="101.000000pt" viewBox="0 0 512.000000 101.000000"
 preserveAspectRatio="xMidYMid meet">

<g transform="translate(0.000000,101.000000) scale(0.100000,-0.100000)"
fill="#000000" stroke="none">
<path d="M3268 971 c-124 -40 -223 -125 -281 -240 -69 -137 -72 -289 -11 -421
27 -58 30 -61 44 -44 14 16 13 17 -5 11 -20 -7 -20 -7 -1 8 16 12 22 12 28 2
6 -9 10 -9 18 3 25 39 34 48 46 43 22 -8 26 20 9 60 -9 22 -15 67 -15 114 0
65 5 88 28 138 33 68 92 127 161 158 67 32 187 30 261 -3 30 -13 59 -29 63
-34 6 -8 10 -7 14 2 2 6 9 9 15 6 7 -5 9 2 6 19 -5 24 -3 26 19 22 18 -3 23 0
19 10 -3 9 1 12 15 10 12 -2 19 2 19 11 0 9 5 12 11 8 7 -4 10 -1 7 7 -8 25
-111 89 -176 109 -83 26 -215 26 -294 1z"/>
<path d="M3990 465 c0 -96 3 -115 15 -115 11 0 15 12 15 50 l0 50 60 0 c47 0
60 3 60 15 0 12 -13 15 -61 15 l-60 0 3 38 3 37 63 3 c90 4 76 22 -18 22 l-80
0 0 -115z"/>
<path d="M4210 465 l0 -115 90 0 c73 0 90 3 90 15 0 12 -15 15 -75 15 l-75 0
0 40 0 40 65 0 c37 0 65 4 65 10 0 6 -28 10 -65 10 l-65 0 0 40 0 40 70 0 c40
0 70 4 70 10 0 6 -35 10 -85 10 l-85 0 0 -115z"/>
<path d="M4440 465 l0 -115 90 0 c73 0 90 3 90 15 0 12 -15 15 -76 15 l-75 0
3 38 3 37 63 3 c83 4 80 22 -4 22 l-65 0 3 38 3 37 73 3 c104 4 90 22 -18 22
l-90 0 0 -115z"/>
<path d="M4680 465 l0 -115 54 0 c101 0 146 35 146 114 0 83 -40 116 -140 116
l-60 0 0 -115z m111 85 c58 -16 79 -92 38 -144 -17 -22 -28 -26 -70 -26 l-49
0 0 83 c0 46 3 87 7 90 9 10 32 9 74 -3z"/>
<path d="M4952 564 c-26 -18 -29 -55 -4 -77 9 -8 37 -20 62 -27 54 -14 70 -26
70 -51 0 -43 -79 -52 -114 -14 -24 26 -46 33 -46 15 0 -6 11 -22 25 -35 35
-36 115 -36 150 0 46 45 22 83 -69 109 -62 18 -80 41 -51 62 27 20 73 17 92
-6 18 -21 43 -27 43 -10 0 6 -9 19 -20 30 -25 25 -105 27 -138 4z"/>
</g>
</svg>
